G04 #@! TF.GenerationSoftware,KiCad,Pcbnew,(5.0.2)-1*
G04 #@! TF.CreationDate,2019-05-10T14:36:23+02:00*
G04 #@! TF.ProjectId,137Mhz-BandPass-Filter,3133374d-687a-42d4-9261-6e6450617373,rev?*
G04 #@! TF.SameCoordinates,Original*
G04 #@! TF.FileFunction,Soldermask,Bot*
G04 #@! TF.FilePolarity,Negative*
%FSLAX46Y46*%
G04 Gerber Fmt 4.6, Leading zero omitted, Abs format (unit mm)*
G04 Created by KiCad (PCBNEW (5.0.2)-1) date 05/10/19 14:36:23*
%MOMM*%
%LPD*%
G01*
G04 APERTURE LIST*
%ADD10C,0.100000*%
G04 APERTURE END LIST*
D10*
G36*
X156634239Y-122811467D02*
X156948282Y-122873934D01*
X157539926Y-123119001D01*
X158068802Y-123472385D01*
X158072395Y-123474786D01*
X158525214Y-123927605D01*
X158525216Y-123927608D01*
X158880999Y-124460074D01*
X159126066Y-125051718D01*
X159251000Y-125679804D01*
X159251000Y-126320196D01*
X159126066Y-126948282D01*
X158880999Y-127539926D01*
X158527615Y-128068802D01*
X158525214Y-128072395D01*
X158072395Y-128525214D01*
X158072392Y-128525216D01*
X157539926Y-128880999D01*
X156948282Y-129126066D01*
X156634239Y-129188533D01*
X156320197Y-129251000D01*
X155679803Y-129251000D01*
X155365761Y-129188533D01*
X155051718Y-129126066D01*
X154460074Y-128880999D01*
X153927608Y-128525216D01*
X153927605Y-128525214D01*
X153474786Y-128072395D01*
X153472385Y-128068802D01*
X153119001Y-127539926D01*
X152873934Y-126948282D01*
X152749000Y-126320196D01*
X152749000Y-125679804D01*
X152873934Y-125051718D01*
X153119001Y-124460074D01*
X153474784Y-123927608D01*
X153474786Y-123927605D01*
X153927605Y-123474786D01*
X153931198Y-123472385D01*
X154460074Y-123119001D01*
X155051718Y-122873934D01*
X155365761Y-122811467D01*
X155679803Y-122749000D01*
X156320197Y-122749000D01*
X156634239Y-122811467D01*
X156634239Y-122811467D01*
G37*
G36*
X111634239Y-122811467D02*
X111948282Y-122873934D01*
X112539926Y-123119001D01*
X113068802Y-123472385D01*
X113072395Y-123474786D01*
X113525214Y-123927605D01*
X113525216Y-123927608D01*
X113880999Y-124460074D01*
X114126066Y-125051718D01*
X114251000Y-125679804D01*
X114251000Y-126320196D01*
X114126066Y-126948282D01*
X113880999Y-127539926D01*
X113527615Y-128068802D01*
X113525214Y-128072395D01*
X113072395Y-128525214D01*
X113072392Y-128525216D01*
X112539926Y-128880999D01*
X111948282Y-129126066D01*
X111634239Y-129188533D01*
X111320197Y-129251000D01*
X110679803Y-129251000D01*
X110365761Y-129188533D01*
X110051718Y-129126066D01*
X109460074Y-128880999D01*
X108927608Y-128525216D01*
X108927605Y-128525214D01*
X108474786Y-128072395D01*
X108472385Y-128068802D01*
X108119001Y-127539926D01*
X107873934Y-126948282D01*
X107749000Y-126320196D01*
X107749000Y-125679804D01*
X107873934Y-125051718D01*
X108119001Y-124460074D01*
X108474784Y-123927608D01*
X108474786Y-123927605D01*
X108927605Y-123474786D01*
X108931198Y-123472385D01*
X109460074Y-123119001D01*
X110051718Y-122873934D01*
X110365761Y-122811467D01*
X110679803Y-122749000D01*
X111320197Y-122749000D01*
X111634239Y-122811467D01*
X111634239Y-122811467D01*
G37*
G36*
X156634239Y-110811467D02*
X156948282Y-110873934D01*
X157539926Y-111119001D01*
X158068802Y-111472385D01*
X158072395Y-111474786D01*
X158525214Y-111927605D01*
X158525216Y-111927608D01*
X158880999Y-112460074D01*
X159126066Y-113051718D01*
X159251000Y-113679804D01*
X159251000Y-114320196D01*
X159126066Y-114948282D01*
X158880999Y-115539926D01*
X158527615Y-116068802D01*
X158525214Y-116072395D01*
X158072395Y-116525214D01*
X158072392Y-116525216D01*
X157539926Y-116880999D01*
X156948282Y-117126066D01*
X156634239Y-117188533D01*
X156320197Y-117251000D01*
X155679803Y-117251000D01*
X155365761Y-117188533D01*
X155051718Y-117126066D01*
X154460074Y-116880999D01*
X153927608Y-116525216D01*
X153927605Y-116525214D01*
X153474786Y-116072395D01*
X153472385Y-116068802D01*
X153119001Y-115539926D01*
X152873934Y-114948282D01*
X152749000Y-114320196D01*
X152749000Y-113679804D01*
X152873934Y-113051718D01*
X153119001Y-112460074D01*
X153474784Y-111927608D01*
X153474786Y-111927605D01*
X153927605Y-111474786D01*
X153931198Y-111472385D01*
X154460074Y-111119001D01*
X155051718Y-110873934D01*
X155365761Y-110811467D01*
X155679803Y-110749000D01*
X156320197Y-110749000D01*
X156634239Y-110811467D01*
X156634239Y-110811467D01*
G37*
G36*
X111634239Y-110811467D02*
X111948282Y-110873934D01*
X112539926Y-111119001D01*
X113068802Y-111472385D01*
X113072395Y-111474786D01*
X113525214Y-111927605D01*
X113525216Y-111927608D01*
X113880999Y-112460074D01*
X114126066Y-113051718D01*
X114251000Y-113679804D01*
X114251000Y-114320196D01*
X114126066Y-114948282D01*
X113880999Y-115539926D01*
X113527615Y-116068802D01*
X113525214Y-116072395D01*
X113072395Y-116525214D01*
X113072392Y-116525216D01*
X112539926Y-116880999D01*
X111948282Y-117126066D01*
X111634239Y-117188533D01*
X111320197Y-117251000D01*
X110679803Y-117251000D01*
X110365761Y-117188533D01*
X110051718Y-117126066D01*
X109460074Y-116880999D01*
X108927608Y-116525216D01*
X108927605Y-116525214D01*
X108474786Y-116072395D01*
X108472385Y-116068802D01*
X108119001Y-115539926D01*
X107873934Y-114948282D01*
X107749000Y-114320196D01*
X107749000Y-113679804D01*
X107873934Y-113051718D01*
X108119001Y-112460074D01*
X108474784Y-111927608D01*
X108474786Y-111927605D01*
X108927605Y-111474786D01*
X108931198Y-111472385D01*
X109460074Y-111119001D01*
X110051718Y-110873934D01*
X110365761Y-110811467D01*
X110679803Y-110749000D01*
X111320197Y-110749000D01*
X111634239Y-110811467D01*
X111634239Y-110811467D01*
G37*
M02*
