G04 #@! TF.GenerationSoftware,KiCad,Pcbnew,(5.0.2)-1*
G04 #@! TF.CreationDate,2019-05-10T14:36:23+02:00*
G04 #@! TF.ProjectId,137Mhz-BandPass-Filter,3133374d-687a-42d4-9261-6e6450617373,rev?*
G04 #@! TF.SameCoordinates,Original*
G04 #@! TF.FileFunction,Legend,Top*
G04 #@! TF.FilePolarity,Positive*
%FSLAX46Y46*%
G04 Gerber Fmt 4.6, Leading zero omitted, Abs format (unit mm)*
G04 Created by KiCad (PCBNEW (5.0.2)-1) date 05/10/19 14:36:23*
%MOMM*%
%LPD*%
G01*
G04 APERTURE LIST*
%ADD10C,0.300000*%
%ADD11C,0.200000*%
%ADD12C,0.120000*%
%ADD13C,0.150000*%
G04 APERTURE END LIST*
D10*
X165421428Y-126214285D02*
X165350000Y-126142857D01*
X165278571Y-126000000D01*
X165278571Y-125642857D01*
X165350000Y-125500000D01*
X165421428Y-125428571D01*
X165564285Y-125357142D01*
X165707142Y-125357142D01*
X165921428Y-125428571D01*
X166778571Y-126285714D01*
X166778571Y-125357142D01*
X165278571Y-124428571D02*
X165278571Y-124285714D01*
X165350000Y-124142857D01*
X165421428Y-124071428D01*
X165564285Y-124000000D01*
X165850000Y-123928571D01*
X166207142Y-123928571D01*
X166492857Y-124000000D01*
X166635714Y-124071428D01*
X166707142Y-124142857D01*
X166778571Y-124285714D01*
X166778571Y-124428571D01*
X166707142Y-124571428D01*
X166635714Y-124642857D01*
X166492857Y-124714285D01*
X166207142Y-124785714D01*
X165850000Y-124785714D01*
X165564285Y-124714285D01*
X165421428Y-124642857D01*
X165350000Y-124571428D01*
X165278571Y-124428571D01*
X166635714Y-123285714D02*
X166707142Y-123214285D01*
X166778571Y-123285714D01*
X166707142Y-123357142D01*
X166635714Y-123285714D01*
X166778571Y-123285714D01*
X165278571Y-122285714D02*
X165278571Y-122142857D01*
X165350000Y-122000000D01*
X165421428Y-121928571D01*
X165564285Y-121857142D01*
X165850000Y-121785714D01*
X166207142Y-121785714D01*
X166492857Y-121857142D01*
X166635714Y-121928571D01*
X166707142Y-122000000D01*
X166778571Y-122142857D01*
X166778571Y-122285714D01*
X166707142Y-122428571D01*
X166635714Y-122500000D01*
X166492857Y-122571428D01*
X166207142Y-122642857D01*
X165850000Y-122642857D01*
X165564285Y-122571428D01*
X165421428Y-122500000D01*
X165350000Y-122428571D01*
X165278571Y-122285714D01*
X165278571Y-120857142D02*
X165278571Y-120714285D01*
X165350000Y-120571428D01*
X165421428Y-120500000D01*
X165564285Y-120428571D01*
X165850000Y-120357142D01*
X166207142Y-120357142D01*
X166492857Y-120428571D01*
X166635714Y-120500000D01*
X166707142Y-120571428D01*
X166778571Y-120714285D01*
X166778571Y-120857142D01*
X166707142Y-121000000D01*
X166635714Y-121071428D01*
X166492857Y-121142857D01*
X166207142Y-121214285D01*
X165850000Y-121214285D01*
X165564285Y-121142857D01*
X165421428Y-121071428D01*
X165350000Y-121000000D01*
X165278571Y-120857142D01*
X165278571Y-119428571D02*
X165278571Y-119285714D01*
X165350000Y-119142857D01*
X165421428Y-119071428D01*
X165564285Y-119000000D01*
X165850000Y-118928571D01*
X166207142Y-118928571D01*
X166492857Y-119000000D01*
X166635714Y-119071428D01*
X166707142Y-119142857D01*
X166778571Y-119285714D01*
X166778571Y-119428571D01*
X166707142Y-119571428D01*
X166635714Y-119642857D01*
X166492857Y-119714285D01*
X166207142Y-119785714D01*
X165850000Y-119785714D01*
X165564285Y-119714285D01*
X165421428Y-119642857D01*
X165350000Y-119571428D01*
X165278571Y-119428571D01*
X166778571Y-117142857D02*
X165778571Y-117142857D01*
X165921428Y-117142857D02*
X165850000Y-117071428D01*
X165778571Y-116928571D01*
X165778571Y-116714285D01*
X165850000Y-116571428D01*
X165992857Y-116500000D01*
X166778571Y-116500000D01*
X165992857Y-116500000D02*
X165850000Y-116428571D01*
X165778571Y-116285714D01*
X165778571Y-116071428D01*
X165850000Y-115928571D01*
X165992857Y-115857142D01*
X166778571Y-115857142D01*
X166778571Y-115142857D02*
X165778571Y-115142857D01*
X165921428Y-115142857D02*
X165850000Y-115071428D01*
X165778571Y-114928571D01*
X165778571Y-114714285D01*
X165850000Y-114571428D01*
X165992857Y-114500000D01*
X166778571Y-114500000D01*
X165992857Y-114500000D02*
X165850000Y-114428571D01*
X165778571Y-114285714D01*
X165778571Y-114071428D01*
X165850000Y-113928571D01*
X165992857Y-113857142D01*
X166778571Y-113857142D01*
X164000000Y-130000000D02*
X164000000Y-110000000D01*
X160000000Y-130000000D02*
X164586421Y-130000000D01*
X160000000Y-110000000D02*
X164586421Y-110000000D01*
X164000000Y-110000000D02*
X164586421Y-111126504D01*
X164000000Y-110000000D02*
X163413579Y-111126504D01*
X164000000Y-130000000D02*
X164586421Y-128873496D01*
X164000000Y-130000000D02*
X163413579Y-128873496D01*
X128071428Y-135278571D02*
X127357142Y-135278571D01*
X127285714Y-135992857D01*
X127357142Y-135921428D01*
X127500000Y-135850000D01*
X127857142Y-135850000D01*
X128000000Y-135921428D01*
X128071428Y-135992857D01*
X128142857Y-136135714D01*
X128142857Y-136492857D01*
X128071428Y-136635714D01*
X128000000Y-136707142D01*
X127857142Y-136778571D01*
X127500000Y-136778571D01*
X127357142Y-136707142D01*
X127285714Y-136635714D01*
X128642857Y-135278571D02*
X129571428Y-135278571D01*
X129071428Y-135850000D01*
X129285714Y-135850000D01*
X129428571Y-135921428D01*
X129500000Y-135992857D01*
X129571428Y-136135714D01*
X129571428Y-136492857D01*
X129500000Y-136635714D01*
X129428571Y-136707142D01*
X129285714Y-136778571D01*
X128857142Y-136778571D01*
X128714285Y-136707142D01*
X128642857Y-136635714D01*
X130214285Y-136635714D02*
X130285714Y-136707142D01*
X130214285Y-136778571D01*
X130142857Y-136707142D01*
X130214285Y-136635714D01*
X130214285Y-136778571D01*
X131214285Y-135278571D02*
X131357142Y-135278571D01*
X131500000Y-135350000D01*
X131571428Y-135421428D01*
X131642857Y-135564285D01*
X131714285Y-135850000D01*
X131714285Y-136207142D01*
X131642857Y-136492857D01*
X131571428Y-136635714D01*
X131500000Y-136707142D01*
X131357142Y-136778571D01*
X131214285Y-136778571D01*
X131071428Y-136707142D01*
X131000000Y-136635714D01*
X130928571Y-136492857D01*
X130857142Y-136207142D01*
X130857142Y-135850000D01*
X130928571Y-135564285D01*
X131000000Y-135421428D01*
X131071428Y-135350000D01*
X131214285Y-135278571D01*
X132642857Y-135278571D02*
X132785714Y-135278571D01*
X132928571Y-135350000D01*
X133000000Y-135421428D01*
X133071428Y-135564285D01*
X133142857Y-135850000D01*
X133142857Y-136207142D01*
X133071428Y-136492857D01*
X133000000Y-136635714D01*
X132928571Y-136707142D01*
X132785714Y-136778571D01*
X132642857Y-136778571D01*
X132500000Y-136707142D01*
X132428571Y-136635714D01*
X132357142Y-136492857D01*
X132285714Y-136207142D01*
X132285714Y-135850000D01*
X132357142Y-135564285D01*
X132428571Y-135421428D01*
X132500000Y-135350000D01*
X132642857Y-135278571D01*
X134071428Y-135278571D02*
X134214285Y-135278571D01*
X134357142Y-135350000D01*
X134428571Y-135421428D01*
X134500000Y-135564285D01*
X134571428Y-135850000D01*
X134571428Y-136207142D01*
X134500000Y-136492857D01*
X134428571Y-136635714D01*
X134357142Y-136707142D01*
X134214285Y-136778571D01*
X134071428Y-136778571D01*
X133928571Y-136707142D01*
X133857142Y-136635714D01*
X133785714Y-136492857D01*
X133714285Y-136207142D01*
X133714285Y-135850000D01*
X133785714Y-135564285D01*
X133857142Y-135421428D01*
X133928571Y-135350000D01*
X134071428Y-135278571D01*
X136357142Y-136778571D02*
X136357142Y-135778571D01*
X136357142Y-135921428D02*
X136428571Y-135850000D01*
X136571428Y-135778571D01*
X136785714Y-135778571D01*
X136928571Y-135850000D01*
X137000000Y-135992857D01*
X137000000Y-136778571D01*
X137000000Y-135992857D02*
X137071428Y-135850000D01*
X137214285Y-135778571D01*
X137428571Y-135778571D01*
X137571428Y-135850000D01*
X137642857Y-135992857D01*
X137642857Y-136778571D01*
X138357142Y-136778571D02*
X138357142Y-135778571D01*
X138357142Y-135921428D02*
X138428571Y-135850000D01*
X138571428Y-135778571D01*
X138785714Y-135778571D01*
X138928571Y-135850000D01*
X139000000Y-135992857D01*
X139000000Y-136778571D01*
X139000000Y-135992857D02*
X139071428Y-135850000D01*
X139214285Y-135778571D01*
X139428571Y-135778571D01*
X139571428Y-135850000D01*
X139642857Y-135992857D01*
X139642857Y-136778571D01*
X160000000Y-134000000D02*
X107000000Y-134000000D01*
X160000000Y-130000000D02*
X160000000Y-134586421D01*
X107000000Y-130000000D02*
X107000000Y-134586421D01*
X107000000Y-134000000D02*
X108126504Y-133413579D01*
X107000000Y-134000000D02*
X108126504Y-134586421D01*
X160000000Y-134000000D02*
X158873496Y-133413579D01*
X160000000Y-134000000D02*
X158873496Y-134586421D01*
D11*
X134000000Y-115000000D02*
X134000000Y-130000000D01*
D12*
G04 #@! TO.C,L1*
X124450000Y-122665000D02*
X120550000Y-123615000D01*
X124450000Y-121665000D02*
X120550000Y-122665000D01*
X124450000Y-120715000D02*
X120550000Y-121665000D01*
X124450000Y-122665000D02*
X120550000Y-122665000D01*
X124450000Y-121665000D02*
X120550000Y-121665000D01*
X124450000Y-120715000D02*
X120550000Y-120715000D01*
X120550000Y-123615000D02*
X124450000Y-123615000D01*
G04 #@! TO.C,L2*
X143550000Y-123615000D02*
X147450000Y-123615000D01*
X147450000Y-120715000D02*
X143550000Y-120715000D01*
X147450000Y-121665000D02*
X143550000Y-121665000D01*
X147450000Y-122665000D02*
X143550000Y-122665000D01*
X147450000Y-120715000D02*
X143550000Y-121665000D01*
X147450000Y-121665000D02*
X143550000Y-122665000D01*
X147450000Y-122665000D02*
X143550000Y-123615000D01*
G04 #@! TO.C,C3*
D13*
X131333333Y-118357142D02*
X131285714Y-118404761D01*
X131142857Y-118452380D01*
X131047619Y-118452380D01*
X130904761Y-118404761D01*
X130809523Y-118309523D01*
X130761904Y-118214285D01*
X130714285Y-118023809D01*
X130714285Y-117880952D01*
X130761904Y-117690476D01*
X130809523Y-117595238D01*
X130904761Y-117500000D01*
X131047619Y-117452380D01*
X131142857Y-117452380D01*
X131285714Y-117500000D01*
X131333333Y-117547619D01*
X131666666Y-117452380D02*
X132285714Y-117452380D01*
X131952380Y-117833333D01*
X132095238Y-117833333D01*
X132190476Y-117880952D01*
X132238095Y-117928571D01*
X132285714Y-118023809D01*
X132285714Y-118261904D01*
X132238095Y-118357142D01*
X132190476Y-118404761D01*
X132095238Y-118452380D01*
X131809523Y-118452380D01*
X131714285Y-118404761D01*
X131666666Y-118357142D01*
G04 #@! TO.C,C1*
X115933333Y-121807142D02*
X115885714Y-121854761D01*
X115742857Y-121902380D01*
X115647619Y-121902380D01*
X115504761Y-121854761D01*
X115409523Y-121759523D01*
X115361904Y-121664285D01*
X115314285Y-121473809D01*
X115314285Y-121330952D01*
X115361904Y-121140476D01*
X115409523Y-121045238D01*
X115504761Y-120950000D01*
X115647619Y-120902380D01*
X115742857Y-120902380D01*
X115885714Y-120950000D01*
X115933333Y-120997619D01*
X116885714Y-121902380D02*
X116314285Y-121902380D01*
X116600000Y-121902380D02*
X116600000Y-120902380D01*
X116504761Y-121045238D01*
X116409523Y-121140476D01*
X116314285Y-121188095D01*
G04 #@! TO.C,C2*
X126907142Y-122166666D02*
X126954761Y-122214285D01*
X127002380Y-122357142D01*
X127002380Y-122452380D01*
X126954761Y-122595238D01*
X126859523Y-122690476D01*
X126764285Y-122738095D01*
X126573809Y-122785714D01*
X126430952Y-122785714D01*
X126240476Y-122738095D01*
X126145238Y-122690476D01*
X126050000Y-122595238D01*
X126002380Y-122452380D01*
X126002380Y-122357142D01*
X126050000Y-122214285D01*
X126097619Y-122166666D01*
X126097619Y-121785714D02*
X126050000Y-121738095D01*
X126002380Y-121642857D01*
X126002380Y-121404761D01*
X126050000Y-121309523D01*
X126097619Y-121261904D01*
X126192857Y-121214285D01*
X126288095Y-121214285D01*
X126430952Y-121261904D01*
X127002380Y-121833333D01*
X127002380Y-121214285D01*
G04 #@! TO.C,L1*
X119992380Y-122066666D02*
X119992380Y-122542857D01*
X118992380Y-122542857D01*
X119992380Y-121209523D02*
X119992380Y-121780952D01*
X119992380Y-121495238D02*
X118992380Y-121495238D01*
X119135238Y-121590476D01*
X119230476Y-121685714D01*
X119278095Y-121780952D01*
G04 #@! TO.C,L2*
X142942380Y-122066666D02*
X142942380Y-122542857D01*
X141942380Y-122542857D01*
X142037619Y-121780952D02*
X141990000Y-121733333D01*
X141942380Y-121638095D01*
X141942380Y-121400000D01*
X141990000Y-121304761D01*
X142037619Y-121257142D01*
X142132857Y-121209523D01*
X142228095Y-121209523D01*
X142370952Y-121257142D01*
X142942380Y-121828571D01*
X142942380Y-121209523D01*
G04 #@! TO.C,C4*
X138907142Y-122166666D02*
X138954761Y-122214285D01*
X139002380Y-122357142D01*
X139002380Y-122452380D01*
X138954761Y-122595238D01*
X138859523Y-122690476D01*
X138764285Y-122738095D01*
X138573809Y-122785714D01*
X138430952Y-122785714D01*
X138240476Y-122738095D01*
X138145238Y-122690476D01*
X138050000Y-122595238D01*
X138002380Y-122452380D01*
X138002380Y-122357142D01*
X138050000Y-122214285D01*
X138097619Y-122166666D01*
X138335714Y-121309523D02*
X139002380Y-121309523D01*
X137954761Y-121547619D02*
X138669047Y-121785714D01*
X138669047Y-121166666D01*
G04 #@! TO.C,C5*
X151033333Y-121807142D02*
X150985714Y-121854761D01*
X150842857Y-121902380D01*
X150747619Y-121902380D01*
X150604761Y-121854761D01*
X150509523Y-121759523D01*
X150461904Y-121664285D01*
X150414285Y-121473809D01*
X150414285Y-121330952D01*
X150461904Y-121140476D01*
X150509523Y-121045238D01*
X150604761Y-120950000D01*
X150747619Y-120902380D01*
X150842857Y-120902380D01*
X150985714Y-120950000D01*
X151033333Y-120997619D01*
X151938095Y-120902380D02*
X151461904Y-120902380D01*
X151414285Y-121378571D01*
X151461904Y-121330952D01*
X151557142Y-121283333D01*
X151795238Y-121283333D01*
X151890476Y-121330952D01*
X151938095Y-121378571D01*
X151985714Y-121473809D01*
X151985714Y-121711904D01*
X151938095Y-121807142D01*
X151890476Y-121854761D01*
X151795238Y-121902380D01*
X151557142Y-121902380D01*
X151461904Y-121854761D01*
X151414285Y-121807142D01*
G04 #@! TD*
M02*
