G04 #@! TF.GenerationSoftware,KiCad,Pcbnew,(5.0.2)-1*
G04 #@! TF.CreationDate,2019-05-10T14:36:23+02:00*
G04 #@! TF.ProjectId,137Mhz-BandPass-Filter,3133374d-687a-42d4-9261-6e6450617373,rev?*
G04 #@! TF.SameCoordinates,Original*
G04 #@! TF.FileFunction,Legend,Bot*
G04 #@! TF.FilePolarity,Positive*
%FSLAX46Y46*%
G04 Gerber Fmt 4.6, Leading zero omitted, Abs format (unit mm)*
G04 Created by KiCad (PCBNEW (5.0.2)-1) date 05/10/19 14:36:23*
%MOMM*%
%LPD*%
G01*
G04 APERTURE LIST*
%ADD10C,0.300000*%
%ADD11C,0.010000*%
G04 APERTURE END LIST*
D10*
X150964285Y-113678571D02*
X151821428Y-113678571D01*
X151392857Y-113678571D02*
X151392857Y-112178571D01*
X151535714Y-112392857D01*
X151678571Y-112535714D01*
X151821428Y-112607142D01*
X150464285Y-112178571D02*
X149535714Y-112178571D01*
X150035714Y-112750000D01*
X149821428Y-112750000D01*
X149678571Y-112821428D01*
X149607142Y-112892857D01*
X149535714Y-113035714D01*
X149535714Y-113392857D01*
X149607142Y-113535714D01*
X149678571Y-113607142D01*
X149821428Y-113678571D01*
X150250000Y-113678571D01*
X150392857Y-113607142D01*
X150464285Y-113535714D01*
X149035714Y-112178571D02*
X148035714Y-112178571D01*
X148678571Y-113678571D01*
X146321428Y-113678571D02*
X146321428Y-112178571D01*
X145821428Y-113250000D01*
X145321428Y-112178571D01*
X145321428Y-113678571D01*
X144607142Y-113678571D02*
X144607142Y-112178571D01*
X144607142Y-112892857D02*
X143750000Y-112892857D01*
X143750000Y-113678571D02*
X143750000Y-112178571D01*
X143178571Y-112678571D02*
X142392857Y-112678571D01*
X143178571Y-113678571D01*
X142392857Y-113678571D01*
X140178571Y-112892857D02*
X139964285Y-112964285D01*
X139892857Y-113035714D01*
X139821428Y-113178571D01*
X139821428Y-113392857D01*
X139892857Y-113535714D01*
X139964285Y-113607142D01*
X140107142Y-113678571D01*
X140678571Y-113678571D01*
X140678571Y-112178571D01*
X140178571Y-112178571D01*
X140035714Y-112250000D01*
X139964285Y-112321428D01*
X139892857Y-112464285D01*
X139892857Y-112607142D01*
X139964285Y-112750000D01*
X140035714Y-112821428D01*
X140178571Y-112892857D01*
X140678571Y-112892857D01*
X138535714Y-113678571D02*
X138535714Y-112892857D01*
X138607142Y-112750000D01*
X138750000Y-112678571D01*
X139035714Y-112678571D01*
X139178571Y-112750000D01*
X138535714Y-113607142D02*
X138678571Y-113678571D01*
X139035714Y-113678571D01*
X139178571Y-113607142D01*
X139250000Y-113464285D01*
X139250000Y-113321428D01*
X139178571Y-113178571D01*
X139035714Y-113107142D01*
X138678571Y-113107142D01*
X138535714Y-113035714D01*
X137821428Y-112678571D02*
X137821428Y-113678571D01*
X137821428Y-112821428D02*
X137750000Y-112750000D01*
X137607142Y-112678571D01*
X137392857Y-112678571D01*
X137250000Y-112750000D01*
X137178571Y-112892857D01*
X137178571Y-113678571D01*
X135821428Y-113678571D02*
X135821428Y-112178571D01*
X135821428Y-113607142D02*
X135964285Y-113678571D01*
X136250000Y-113678571D01*
X136392857Y-113607142D01*
X136464285Y-113535714D01*
X136535714Y-113392857D01*
X136535714Y-112964285D01*
X136464285Y-112821428D01*
X136392857Y-112750000D01*
X136250000Y-112678571D01*
X135964285Y-112678571D01*
X135821428Y-112750000D01*
X135107142Y-113107142D02*
X133964285Y-113107142D01*
X133250000Y-112678571D02*
X133250000Y-114178571D01*
X133250000Y-112750000D02*
X133107142Y-112678571D01*
X132821428Y-112678571D01*
X132678571Y-112750000D01*
X132607142Y-112821428D01*
X132535714Y-112964285D01*
X132535714Y-113392857D01*
X132607142Y-113535714D01*
X132678571Y-113607142D01*
X132821428Y-113678571D01*
X133107142Y-113678571D01*
X133250000Y-113607142D01*
X131250000Y-113678571D02*
X131250000Y-112892857D01*
X131321428Y-112750000D01*
X131464285Y-112678571D01*
X131750000Y-112678571D01*
X131892857Y-112750000D01*
X131250000Y-113607142D02*
X131392857Y-113678571D01*
X131750000Y-113678571D01*
X131892857Y-113607142D01*
X131964285Y-113464285D01*
X131964285Y-113321428D01*
X131892857Y-113178571D01*
X131750000Y-113107142D01*
X131392857Y-113107142D01*
X131250000Y-113035714D01*
X130607142Y-113607142D02*
X130464285Y-113678571D01*
X130178571Y-113678571D01*
X130035714Y-113607142D01*
X129964285Y-113464285D01*
X129964285Y-113392857D01*
X130035714Y-113250000D01*
X130178571Y-113178571D01*
X130392857Y-113178571D01*
X130535714Y-113107142D01*
X130607142Y-112964285D01*
X130607142Y-112892857D01*
X130535714Y-112750000D01*
X130392857Y-112678571D01*
X130178571Y-112678571D01*
X130035714Y-112750000D01*
X129392857Y-113607142D02*
X129250000Y-113678571D01*
X128964285Y-113678571D01*
X128821428Y-113607142D01*
X128750000Y-113464285D01*
X128750000Y-113392857D01*
X128821428Y-113250000D01*
X128964285Y-113178571D01*
X129178571Y-113178571D01*
X129321428Y-113107142D01*
X129392857Y-112964285D01*
X129392857Y-112892857D01*
X129321428Y-112750000D01*
X129178571Y-112678571D01*
X128964285Y-112678571D01*
X128821428Y-112750000D01*
X127178571Y-112678571D02*
X126607142Y-112678571D01*
X126964285Y-113678571D02*
X126964285Y-112392857D01*
X126892857Y-112250000D01*
X126750000Y-112178571D01*
X126607142Y-112178571D01*
X126107142Y-113678571D02*
X126107142Y-112678571D01*
X126107142Y-112178571D02*
X126178571Y-112250000D01*
X126107142Y-112321428D01*
X126035714Y-112250000D01*
X126107142Y-112178571D01*
X126107142Y-112321428D01*
X125178571Y-113678571D02*
X125321428Y-113607142D01*
X125392857Y-113464285D01*
X125392857Y-112178571D01*
X124821428Y-112678571D02*
X124250000Y-112678571D01*
X124607142Y-112178571D02*
X124607142Y-113464285D01*
X124535714Y-113607142D01*
X124392857Y-113678571D01*
X124250000Y-113678571D01*
X123178571Y-113607142D02*
X123321428Y-113678571D01*
X123607142Y-113678571D01*
X123750000Y-113607142D01*
X123821428Y-113464285D01*
X123821428Y-112892857D01*
X123750000Y-112750000D01*
X123607142Y-112678571D01*
X123321428Y-112678571D01*
X123178571Y-112750000D01*
X123107142Y-112892857D01*
X123107142Y-113035714D01*
X123821428Y-113178571D01*
X122464285Y-113678571D02*
X122464285Y-112678571D01*
X122464285Y-112964285D02*
X122392857Y-112821428D01*
X122321428Y-112750000D01*
X122178571Y-112678571D01*
X122035714Y-112678571D01*
D11*
G04 #@! TO.C,G\002A\002A\002A*
G36*
X117911400Y-124452861D02*
X118418858Y-124408039D01*
X118951524Y-124333865D01*
X119507149Y-124230441D01*
X120083487Y-124097872D01*
X120678290Y-123936262D01*
X120970546Y-123848139D01*
X121204714Y-123773417D01*
X121411605Y-123702668D01*
X121606006Y-123630154D01*
X121802710Y-123550142D01*
X122016503Y-123456894D01*
X122228600Y-123360223D01*
X122377243Y-123290001D01*
X122545884Y-123207812D01*
X122726251Y-123117924D01*
X122910079Y-123024607D01*
X123089097Y-122932130D01*
X123255039Y-122844764D01*
X123399635Y-122766777D01*
X123514617Y-122702440D01*
X123589249Y-122657619D01*
X123665342Y-122609795D01*
X123753700Y-122555892D01*
X123780307Y-122540000D01*
X123837720Y-122504367D01*
X123927040Y-122447080D01*
X124038044Y-122374868D01*
X124160509Y-122294462D01*
X124284210Y-122212590D01*
X124398924Y-122135983D01*
X124494429Y-122071370D01*
X124540000Y-122039943D01*
X124656902Y-121955736D01*
X124795721Y-121851692D01*
X124946122Y-121735949D01*
X125097774Y-121616642D01*
X125240345Y-121501911D01*
X125363503Y-121399892D01*
X125456916Y-121318722D01*
X125464355Y-121311945D01*
X125801729Y-120989687D01*
X126097773Y-120679476D01*
X126351035Y-120383012D01*
X126560060Y-120102001D01*
X126723396Y-119838143D01*
X126725175Y-119834900D01*
X126770782Y-119751688D01*
X126808633Y-119682695D01*
X126829685Y-119644400D01*
X126857549Y-119587784D01*
X126894620Y-119504873D01*
X126933919Y-119412261D01*
X126968464Y-119326541D01*
X126991276Y-119264307D01*
X126995308Y-119250700D01*
X127009316Y-119195123D01*
X127029318Y-119116133D01*
X127037067Y-119085600D01*
X127049481Y-119006782D01*
X127057990Y-118893790D01*
X127062344Y-118763117D01*
X127062296Y-118631260D01*
X127057595Y-118514710D01*
X127047993Y-118429964D01*
X127047037Y-118425200D01*
X126987382Y-118251681D01*
X126885423Y-118078444D01*
X126748900Y-117914499D01*
X126585555Y-117768853D01*
X126403128Y-117650515D01*
X126364082Y-117630449D01*
X126102095Y-117524763D01*
X125807230Y-117449376D01*
X125477009Y-117403894D01*
X125108951Y-117387921D01*
X124870558Y-117392274D01*
X124729280Y-117398365D01*
X124601799Y-117405028D01*
X124498693Y-117411625D01*
X124430543Y-117417515D01*
X124413000Y-117419972D01*
X124355878Y-117430464D01*
X124267985Y-117445826D01*
X124171700Y-117462169D01*
X123925773Y-117508053D01*
X123668869Y-117564561D01*
X123410285Y-117629027D01*
X123159317Y-117698785D01*
X122925261Y-117771169D01*
X122717414Y-117843512D01*
X122545070Y-117913148D01*
X122463328Y-117952131D01*
X122399133Y-117980227D01*
X122349859Y-117993284D01*
X122346876Y-117993400D01*
X122310136Y-118004590D01*
X122236718Y-118035446D01*
X122134855Y-118081898D01*
X122012783Y-118139876D01*
X121878736Y-118205311D01*
X121740948Y-118274131D01*
X121607655Y-118342267D01*
X121487090Y-118405650D01*
X121387490Y-118460208D01*
X121317087Y-118501873D01*
X121313679Y-118504063D01*
X121255324Y-118541020D01*
X121176157Y-118590186D01*
X121130241Y-118618363D01*
X121048559Y-118670263D01*
X120946631Y-118737844D01*
X120845474Y-118807153D01*
X120838141Y-118812287D01*
X120751649Y-118872791D01*
X120676323Y-118925200D01*
X120625759Y-118960061D01*
X120618937Y-118964687D01*
X120567227Y-119002151D01*
X120542703Y-119022100D01*
X120508597Y-119050647D01*
X120448664Y-119099403D01*
X120387065Y-119148862D01*
X120310390Y-119213862D01*
X120214774Y-119300304D01*
X120116659Y-119393183D01*
X120080913Y-119428262D01*
X119851372Y-119674215D01*
X119666910Y-119910704D01*
X119528035Y-120136574D01*
X119435250Y-120350666D01*
X119389064Y-120551823D01*
X119389981Y-120738890D01*
X119435546Y-120903910D01*
X119477695Y-120986451D01*
X119532852Y-121058187D01*
X119613733Y-121134407D01*
X119657095Y-121170353D01*
X119695701Y-121192082D01*
X119766885Y-121224668D01*
X119855616Y-121261252D01*
X119860295Y-121263083D01*
X119930342Y-121288957D01*
X119993583Y-121307229D01*
X120061256Y-121319264D01*
X120144597Y-121326426D01*
X120254845Y-121330082D01*
X120403236Y-121331595D01*
X120425200Y-121331703D01*
X120570443Y-121331193D01*
X120705747Y-121328584D01*
X120819241Y-121324256D01*
X120899053Y-121318592D01*
X120920500Y-121315765D01*
X121109201Y-121279250D01*
X121330377Y-121230436D01*
X121568231Y-121172860D01*
X121636286Y-121155491D01*
X121753524Y-121128007D01*
X121861124Y-121107736D01*
X121944252Y-121097225D01*
X121977885Y-121096810D01*
X122060897Y-121104900D01*
X121973298Y-121204474D01*
X121871783Y-121298382D01*
X121728802Y-121400100D01*
X121552380Y-121505978D01*
X121350541Y-121612365D01*
X121131310Y-121715609D01*
X120902711Y-121812060D01*
X120672769Y-121898065D01*
X120449508Y-121969975D01*
X120240952Y-122024137D01*
X120120400Y-122047556D01*
X120042114Y-122062277D01*
X119993400Y-122072906D01*
X119854994Y-122098724D01*
X119685898Y-122119710D01*
X119498267Y-122135373D01*
X119304254Y-122145218D01*
X119116013Y-122148754D01*
X118945699Y-122145487D01*
X118805466Y-122134924D01*
X118736100Y-122123890D01*
X118544206Y-122079366D01*
X118390161Y-122034910D01*
X118261251Y-121985689D01*
X118144760Y-121926868D01*
X118031494Y-121855992D01*
X117878781Y-121724862D01*
X117750294Y-121552715D01*
X117705785Y-121473200D01*
X117677329Y-121409763D01*
X117658757Y-121342207D01*
X117647653Y-121256464D01*
X117641602Y-121138470D01*
X117640352Y-121092200D01*
X117639043Y-120961260D01*
X117644020Y-120862134D01*
X117657860Y-120775973D01*
X117683138Y-120683927D01*
X117705349Y-120616620D01*
X117792715Y-120393477D01*
X117898839Y-120175195D01*
X118014226Y-119980461D01*
X118066386Y-119905840D01*
X118116850Y-119835553D01*
X118152290Y-119781745D01*
X118164600Y-119757303D01*
X118181031Y-119730778D01*
X118226066Y-119674532D01*
X118293312Y-119595671D01*
X118376377Y-119501300D01*
X118468870Y-119398523D01*
X118564398Y-119294444D01*
X118656572Y-119196169D01*
X118738998Y-119110801D01*
X118803513Y-119047123D01*
X119025930Y-118845403D01*
X119277378Y-118633094D01*
X119541976Y-118423356D01*
X119695441Y-118307904D01*
X119780571Y-118244900D01*
X119851472Y-118191881D01*
X119897104Y-118157125D01*
X119906099Y-118149947D01*
X119948330Y-118121053D01*
X119993400Y-118095000D01*
X120049199Y-118062133D01*
X120080700Y-118039883D01*
X120140665Y-117995513D01*
X120237901Y-117931138D01*
X120365102Y-117851125D01*
X120514966Y-117759837D01*
X120680190Y-117661639D01*
X120853469Y-117560898D01*
X121027501Y-117461977D01*
X121194981Y-117369242D01*
X121276100Y-117325426D01*
X121392086Y-117264781D01*
X121525186Y-117197431D01*
X121667565Y-117127093D01*
X121811390Y-117057483D01*
X121948825Y-116992316D01*
X122072035Y-116935310D01*
X122173186Y-116890179D01*
X122244444Y-116860641D01*
X122277607Y-116850400D01*
X122310193Y-116840540D01*
X122375582Y-116814501D01*
X122460549Y-116777594D01*
X122473882Y-116771577D01*
X122584573Y-116723379D01*
X122700710Y-116675922D01*
X122787400Y-116643057D01*
X122974382Y-116577019D01*
X123150919Y-116515574D01*
X123310313Y-116460979D01*
X123445870Y-116415493D01*
X123550893Y-116381373D01*
X123618688Y-116360877D01*
X123638300Y-116356123D01*
X123688793Y-116343726D01*
X123768184Y-116320048D01*
X123841645Y-116296105D01*
X123969942Y-116256693D01*
X124137182Y-116211370D01*
X124332223Y-116162707D01*
X124543922Y-116113276D01*
X124761134Y-116065650D01*
X124972719Y-116022399D01*
X125167532Y-115986097D01*
X125233039Y-115974956D01*
X125778820Y-115900101D01*
X126300586Y-115858978D01*
X126795667Y-115851498D01*
X127261393Y-115877573D01*
X127695092Y-115937113D01*
X128094094Y-116030029D01*
X128239063Y-116075073D01*
X128376873Y-116123485D01*
X128509927Y-116174330D01*
X128628940Y-116223643D01*
X128724629Y-116267460D01*
X128787709Y-116301815D01*
X128807200Y-116317693D01*
X128839147Y-116343991D01*
X128889987Y-116371563D01*
X128942216Y-116392800D01*
X128978332Y-116400089D01*
X128985000Y-116395006D01*
X128966564Y-116368362D01*
X128917603Y-116319717D01*
X128847638Y-116258326D01*
X128826250Y-116240658D01*
X128607049Y-116089258D01*
X128344270Y-115955752D01*
X128042551Y-115842043D01*
X127706530Y-115750033D01*
X127549900Y-115717084D01*
X127454698Y-115704107D01*
X127318034Y-115692736D01*
X127149224Y-115683152D01*
X126957586Y-115675534D01*
X126752437Y-115670062D01*
X126543094Y-115666918D01*
X126338874Y-115666279D01*
X126149094Y-115668326D01*
X125983072Y-115673240D01*
X125850125Y-115681200D01*
X125822700Y-115683732D01*
X125275953Y-115753034D01*
X124708942Y-115850951D01*
X124130413Y-115974915D01*
X123549108Y-116122356D01*
X122973772Y-116290707D01*
X122413149Y-116477400D01*
X121875982Y-116679867D01*
X121371016Y-116895538D01*
X120906994Y-117121847D01*
X120882400Y-117134781D01*
X120317702Y-117449066D01*
X119781371Y-117779935D01*
X119276541Y-118124861D01*
X118806347Y-118481317D01*
X118373922Y-118846775D01*
X117982402Y-119218708D01*
X117634919Y-119594588D01*
X117334609Y-119971889D01*
X117293700Y-120028626D01*
X117237955Y-120109960D01*
X117196047Y-120176709D01*
X117175124Y-120217307D01*
X117174000Y-120222366D01*
X117156608Y-120259433D01*
X117142177Y-120274191D01*
X117114823Y-120310525D01*
X117072671Y-120382295D01*
X117021542Y-120478509D01*
X116967254Y-120588173D01*
X116915626Y-120700295D01*
X116910842Y-120711200D01*
X116852749Y-120864984D01*
X116801061Y-121039273D01*
X116768954Y-121181100D01*
X116757366Y-121278157D01*
X116752345Y-121398106D01*
X116753449Y-121525967D01*
X116760237Y-121646759D01*
X116772264Y-121745500D01*
X116787322Y-121803400D01*
X116814600Y-121879397D01*
X116828650Y-121932067D01*
X116855930Y-122000098D01*
X116893908Y-122056603D01*
X116930285Y-122104584D01*
X116945399Y-122136512D01*
X116964132Y-122170983D01*
X117013915Y-122226954D01*
X117085126Y-122295488D01*
X117168144Y-122367647D01*
X117253347Y-122434495D01*
X117305414Y-122470911D01*
X117557391Y-122608715D01*
X117836407Y-122711826D01*
X118128281Y-122775236D01*
X118189667Y-122783016D01*
X118269710Y-122793326D01*
X118327682Y-122803477D01*
X118346012Y-122808933D01*
X118374788Y-122811792D01*
X118444990Y-122814217D01*
X118547248Y-122816137D01*
X118672188Y-122817481D01*
X118810441Y-122818179D01*
X118952633Y-122818159D01*
X119089392Y-122817350D01*
X119211348Y-122815682D01*
X119218700Y-122815539D01*
X119262445Y-122811558D01*
X119344913Y-122801430D01*
X119454606Y-122786649D01*
X119580025Y-122768713D01*
X119590225Y-122767211D01*
X119836905Y-122726774D01*
X120086927Y-122678389D01*
X120329992Y-122624525D01*
X120555804Y-122567651D01*
X120754062Y-122510237D01*
X120914469Y-122454750D01*
X120945383Y-122442330D01*
X121011948Y-122417844D01*
X121058358Y-122406557D01*
X121066645Y-122406855D01*
X121099725Y-122400235D01*
X121159221Y-122375854D01*
X121186800Y-122362405D01*
X121256750Y-122330858D01*
X121312202Y-122312944D01*
X121324405Y-122311401D01*
X121357712Y-122300984D01*
X121428816Y-122272160D01*
X121529747Y-122228572D01*
X121652537Y-122173860D01*
X121789216Y-122111666D01*
X121931816Y-122045630D01*
X122072367Y-121979395D01*
X122202900Y-121916600D01*
X122315445Y-121860888D01*
X122358275Y-121839008D01*
X122545107Y-121741184D01*
X122688032Y-121663843D01*
X122789116Y-121605847D01*
X122836958Y-121575559D01*
X122885658Y-121542817D01*
X122964044Y-121490508D01*
X123059430Y-121427086D01*
X123120088Y-121386857D01*
X123415788Y-121177492D01*
X123692635Y-120954940D01*
X123945346Y-120724539D01*
X124168636Y-120491621D01*
X124357218Y-120261524D01*
X124505810Y-120039581D01*
X124566990Y-119926169D01*
X124645930Y-119743620D01*
X124691708Y-119581271D01*
X124707958Y-119424297D01*
X124706815Y-119355637D01*
X124675348Y-119176647D01*
X124599322Y-119020956D01*
X124478588Y-118888464D01*
X124312998Y-118779073D01*
X124102403Y-118692682D01*
X123846656Y-118629194D01*
X123562100Y-118590037D01*
X123404866Y-118573654D01*
X123296801Y-118558925D01*
X123236307Y-118545609D01*
X123222702Y-118538769D01*
X123223408Y-118509610D01*
X123265342Y-118469356D01*
X123341151Y-118421772D01*
X123443484Y-118370626D01*
X123564990Y-118319682D01*
X123698318Y-118272707D01*
X123801027Y-118242512D01*
X123940548Y-118206489D01*
X124057643Y-118180326D01*
X124166772Y-118162090D01*
X124282396Y-118149848D01*
X124418976Y-118141668D01*
X124590971Y-118135617D01*
X124603500Y-118135257D01*
X124797972Y-118132374D01*
X124958455Y-118137173D01*
X125101404Y-118151321D01*
X125243273Y-118176482D01*
X125400516Y-118214323D01*
X125410546Y-118216966D01*
X125549068Y-118270227D01*
X125695735Y-118354432D01*
X125837391Y-118459433D01*
X125960886Y-118575081D01*
X126053066Y-118691227D01*
X126075437Y-118730000D01*
X126126755Y-118875725D01*
X126151485Y-119052125D01*
X126149598Y-119246573D01*
X126121064Y-119446440D01*
X126077495Y-119606300D01*
X125972195Y-119857666D01*
X125823230Y-120123721D01*
X125634000Y-120400037D01*
X125407906Y-120682189D01*
X125148349Y-120965750D01*
X124858730Y-121246292D01*
X124728127Y-121362865D01*
X124610699Y-121461503D01*
X124468619Y-121575019D01*
X124310228Y-121697288D01*
X124143864Y-121822186D01*
X123977866Y-121943587D01*
X123820572Y-122055366D01*
X123680323Y-122151399D01*
X123565456Y-122225560D01*
X123506490Y-122260159D01*
X123424877Y-122307071D01*
X123331715Y-122363739D01*
X123295400Y-122386746D01*
X123073085Y-122522095D01*
X122811668Y-122667962D01*
X122520574Y-122819836D01*
X122209227Y-122973207D01*
X121887051Y-123123562D01*
X121563470Y-123266391D01*
X121247909Y-123397183D01*
X120949791Y-123511427D01*
X120933200Y-123517463D01*
X120829738Y-123555655D01*
X120733881Y-123592193D01*
X120664664Y-123619804D01*
X120659288Y-123622073D01*
X120592934Y-123646192D01*
X120542708Y-123657485D01*
X120539499Y-123657601D01*
X120492569Y-123667198D01*
X120426716Y-123690603D01*
X120419711Y-123693570D01*
X120339809Y-123723471D01*
X120224050Y-123761058D01*
X120086047Y-123802465D01*
X119939411Y-123843825D01*
X119797754Y-123881271D01*
X119674688Y-123910935D01*
X119601837Y-123925919D01*
X119540827Y-123940011D01*
X119505030Y-123953266D01*
X119465633Y-123966708D01*
X119402380Y-123979518D01*
X119401293Y-123979685D01*
X119337805Y-123991330D01*
X119243326Y-124010923D01*
X119136278Y-124034615D01*
X119115711Y-124039338D01*
X118999816Y-124064574D01*
X118884601Y-124087114D01*
X118793123Y-124102473D01*
X118785511Y-124103531D01*
X118700801Y-124115567D01*
X118630437Y-124126650D01*
X118609100Y-124130502D01*
X118550312Y-124139694D01*
X118452724Y-124152354D01*
X118328108Y-124167187D01*
X118188241Y-124182899D01*
X118044896Y-124198198D01*
X117909849Y-124211789D01*
X117794874Y-124222380D01*
X117720100Y-124228161D01*
X117610377Y-124233225D01*
X117473497Y-124236629D01*
X117323017Y-124238351D01*
X117172497Y-124238371D01*
X117035494Y-124236666D01*
X116925568Y-124233217D01*
X116869200Y-124229487D01*
X116795990Y-124222571D01*
X116696215Y-124213462D01*
X116610887Y-124205851D01*
X116476572Y-124189865D01*
X116316318Y-124164599D01*
X116153220Y-124134053D01*
X116010374Y-124102225D01*
X116005600Y-124101030D01*
X115935419Y-124083897D01*
X115854587Y-124064822D01*
X115853200Y-124064501D01*
X115749919Y-124036376D01*
X115640136Y-123999821D01*
X115541182Y-123961191D01*
X115470387Y-123926840D01*
X115460198Y-123920410D01*
X115401512Y-123892899D01*
X115364948Y-123886200D01*
X115326847Y-123874385D01*
X115319800Y-123860800D01*
X115299359Y-123837966D01*
X115283514Y-123835400D01*
X115235823Y-123818678D01*
X115212422Y-123800594D01*
X115166716Y-123764534D01*
X115109372Y-123730852D01*
X115055617Y-123706866D01*
X115020680Y-123699895D01*
X115014999Y-123705717D01*
X115035282Y-123742482D01*
X115090160Y-123798444D01*
X115170680Y-123866645D01*
X115267887Y-123940126D01*
X115372827Y-124011931D01*
X115476548Y-124075099D01*
X115521846Y-124099579D01*
X115830869Y-124233051D01*
X116178583Y-124336548D01*
X116562740Y-124410174D01*
X116981093Y-124454032D01*
X117431396Y-124468227D01*
X117911400Y-124452861D01*
X117911400Y-124452861D01*
G37*
X117911400Y-124452861D02*
X118418858Y-124408039D01*
X118951524Y-124333865D01*
X119507149Y-124230441D01*
X120083487Y-124097872D01*
X120678290Y-123936262D01*
X120970546Y-123848139D01*
X121204714Y-123773417D01*
X121411605Y-123702668D01*
X121606006Y-123630154D01*
X121802710Y-123550142D01*
X122016503Y-123456894D01*
X122228600Y-123360223D01*
X122377243Y-123290001D01*
X122545884Y-123207812D01*
X122726251Y-123117924D01*
X122910079Y-123024607D01*
X123089097Y-122932130D01*
X123255039Y-122844764D01*
X123399635Y-122766777D01*
X123514617Y-122702440D01*
X123589249Y-122657619D01*
X123665342Y-122609795D01*
X123753700Y-122555892D01*
X123780307Y-122540000D01*
X123837720Y-122504367D01*
X123927040Y-122447080D01*
X124038044Y-122374868D01*
X124160509Y-122294462D01*
X124284210Y-122212590D01*
X124398924Y-122135983D01*
X124494429Y-122071370D01*
X124540000Y-122039943D01*
X124656902Y-121955736D01*
X124795721Y-121851692D01*
X124946122Y-121735949D01*
X125097774Y-121616642D01*
X125240345Y-121501911D01*
X125363503Y-121399892D01*
X125456916Y-121318722D01*
X125464355Y-121311945D01*
X125801729Y-120989687D01*
X126097773Y-120679476D01*
X126351035Y-120383012D01*
X126560060Y-120102001D01*
X126723396Y-119838143D01*
X126725175Y-119834900D01*
X126770782Y-119751688D01*
X126808633Y-119682695D01*
X126829685Y-119644400D01*
X126857549Y-119587784D01*
X126894620Y-119504873D01*
X126933919Y-119412261D01*
X126968464Y-119326541D01*
X126991276Y-119264307D01*
X126995308Y-119250700D01*
X127009316Y-119195123D01*
X127029318Y-119116133D01*
X127037067Y-119085600D01*
X127049481Y-119006782D01*
X127057990Y-118893790D01*
X127062344Y-118763117D01*
X127062296Y-118631260D01*
X127057595Y-118514710D01*
X127047993Y-118429964D01*
X127047037Y-118425200D01*
X126987382Y-118251681D01*
X126885423Y-118078444D01*
X126748900Y-117914499D01*
X126585555Y-117768853D01*
X126403128Y-117650515D01*
X126364082Y-117630449D01*
X126102095Y-117524763D01*
X125807230Y-117449376D01*
X125477009Y-117403894D01*
X125108951Y-117387921D01*
X124870558Y-117392274D01*
X124729280Y-117398365D01*
X124601799Y-117405028D01*
X124498693Y-117411625D01*
X124430543Y-117417515D01*
X124413000Y-117419972D01*
X124355878Y-117430464D01*
X124267985Y-117445826D01*
X124171700Y-117462169D01*
X123925773Y-117508053D01*
X123668869Y-117564561D01*
X123410285Y-117629027D01*
X123159317Y-117698785D01*
X122925261Y-117771169D01*
X122717414Y-117843512D01*
X122545070Y-117913148D01*
X122463328Y-117952131D01*
X122399133Y-117980227D01*
X122349859Y-117993284D01*
X122346876Y-117993400D01*
X122310136Y-118004590D01*
X122236718Y-118035446D01*
X122134855Y-118081898D01*
X122012783Y-118139876D01*
X121878736Y-118205311D01*
X121740948Y-118274131D01*
X121607655Y-118342267D01*
X121487090Y-118405650D01*
X121387490Y-118460208D01*
X121317087Y-118501873D01*
X121313679Y-118504063D01*
X121255324Y-118541020D01*
X121176157Y-118590186D01*
X121130241Y-118618363D01*
X121048559Y-118670263D01*
X120946631Y-118737844D01*
X120845474Y-118807153D01*
X120838141Y-118812287D01*
X120751649Y-118872791D01*
X120676323Y-118925200D01*
X120625759Y-118960061D01*
X120618937Y-118964687D01*
X120567227Y-119002151D01*
X120542703Y-119022100D01*
X120508597Y-119050647D01*
X120448664Y-119099403D01*
X120387065Y-119148862D01*
X120310390Y-119213862D01*
X120214774Y-119300304D01*
X120116659Y-119393183D01*
X120080913Y-119428262D01*
X119851372Y-119674215D01*
X119666910Y-119910704D01*
X119528035Y-120136574D01*
X119435250Y-120350666D01*
X119389064Y-120551823D01*
X119389981Y-120738890D01*
X119435546Y-120903910D01*
X119477695Y-120986451D01*
X119532852Y-121058187D01*
X119613733Y-121134407D01*
X119657095Y-121170353D01*
X119695701Y-121192082D01*
X119766885Y-121224668D01*
X119855616Y-121261252D01*
X119860295Y-121263083D01*
X119930342Y-121288957D01*
X119993583Y-121307229D01*
X120061256Y-121319264D01*
X120144597Y-121326426D01*
X120254845Y-121330082D01*
X120403236Y-121331595D01*
X120425200Y-121331703D01*
X120570443Y-121331193D01*
X120705747Y-121328584D01*
X120819241Y-121324256D01*
X120899053Y-121318592D01*
X120920500Y-121315765D01*
X121109201Y-121279250D01*
X121330377Y-121230436D01*
X121568231Y-121172860D01*
X121636286Y-121155491D01*
X121753524Y-121128007D01*
X121861124Y-121107736D01*
X121944252Y-121097225D01*
X121977885Y-121096810D01*
X122060897Y-121104900D01*
X121973298Y-121204474D01*
X121871783Y-121298382D01*
X121728802Y-121400100D01*
X121552380Y-121505978D01*
X121350541Y-121612365D01*
X121131310Y-121715609D01*
X120902711Y-121812060D01*
X120672769Y-121898065D01*
X120449508Y-121969975D01*
X120240952Y-122024137D01*
X120120400Y-122047556D01*
X120042114Y-122062277D01*
X119993400Y-122072906D01*
X119854994Y-122098724D01*
X119685898Y-122119710D01*
X119498267Y-122135373D01*
X119304254Y-122145218D01*
X119116013Y-122148754D01*
X118945699Y-122145487D01*
X118805466Y-122134924D01*
X118736100Y-122123890D01*
X118544206Y-122079366D01*
X118390161Y-122034910D01*
X118261251Y-121985689D01*
X118144760Y-121926868D01*
X118031494Y-121855992D01*
X117878781Y-121724862D01*
X117750294Y-121552715D01*
X117705785Y-121473200D01*
X117677329Y-121409763D01*
X117658757Y-121342207D01*
X117647653Y-121256464D01*
X117641602Y-121138470D01*
X117640352Y-121092200D01*
X117639043Y-120961260D01*
X117644020Y-120862134D01*
X117657860Y-120775973D01*
X117683138Y-120683927D01*
X117705349Y-120616620D01*
X117792715Y-120393477D01*
X117898839Y-120175195D01*
X118014226Y-119980461D01*
X118066386Y-119905840D01*
X118116850Y-119835553D01*
X118152290Y-119781745D01*
X118164600Y-119757303D01*
X118181031Y-119730778D01*
X118226066Y-119674532D01*
X118293312Y-119595671D01*
X118376377Y-119501300D01*
X118468870Y-119398523D01*
X118564398Y-119294444D01*
X118656572Y-119196169D01*
X118738998Y-119110801D01*
X118803513Y-119047123D01*
X119025930Y-118845403D01*
X119277378Y-118633094D01*
X119541976Y-118423356D01*
X119695441Y-118307904D01*
X119780571Y-118244900D01*
X119851472Y-118191881D01*
X119897104Y-118157125D01*
X119906099Y-118149947D01*
X119948330Y-118121053D01*
X119993400Y-118095000D01*
X120049199Y-118062133D01*
X120080700Y-118039883D01*
X120140665Y-117995513D01*
X120237901Y-117931138D01*
X120365102Y-117851125D01*
X120514966Y-117759837D01*
X120680190Y-117661639D01*
X120853469Y-117560898D01*
X121027501Y-117461977D01*
X121194981Y-117369242D01*
X121276100Y-117325426D01*
X121392086Y-117264781D01*
X121525186Y-117197431D01*
X121667565Y-117127093D01*
X121811390Y-117057483D01*
X121948825Y-116992316D01*
X122072035Y-116935310D01*
X122173186Y-116890179D01*
X122244444Y-116860641D01*
X122277607Y-116850400D01*
X122310193Y-116840540D01*
X122375582Y-116814501D01*
X122460549Y-116777594D01*
X122473882Y-116771577D01*
X122584573Y-116723379D01*
X122700710Y-116675922D01*
X122787400Y-116643057D01*
X122974382Y-116577019D01*
X123150919Y-116515574D01*
X123310313Y-116460979D01*
X123445870Y-116415493D01*
X123550893Y-116381373D01*
X123618688Y-116360877D01*
X123638300Y-116356123D01*
X123688793Y-116343726D01*
X123768184Y-116320048D01*
X123841645Y-116296105D01*
X123969942Y-116256693D01*
X124137182Y-116211370D01*
X124332223Y-116162707D01*
X124543922Y-116113276D01*
X124761134Y-116065650D01*
X124972719Y-116022399D01*
X125167532Y-115986097D01*
X125233039Y-115974956D01*
X125778820Y-115900101D01*
X126300586Y-115858978D01*
X126795667Y-115851498D01*
X127261393Y-115877573D01*
X127695092Y-115937113D01*
X128094094Y-116030029D01*
X128239063Y-116075073D01*
X128376873Y-116123485D01*
X128509927Y-116174330D01*
X128628940Y-116223643D01*
X128724629Y-116267460D01*
X128787709Y-116301815D01*
X128807200Y-116317693D01*
X128839147Y-116343991D01*
X128889987Y-116371563D01*
X128942216Y-116392800D01*
X128978332Y-116400089D01*
X128985000Y-116395006D01*
X128966564Y-116368362D01*
X128917603Y-116319717D01*
X128847638Y-116258326D01*
X128826250Y-116240658D01*
X128607049Y-116089258D01*
X128344270Y-115955752D01*
X128042551Y-115842043D01*
X127706530Y-115750033D01*
X127549900Y-115717084D01*
X127454698Y-115704107D01*
X127318034Y-115692736D01*
X127149224Y-115683152D01*
X126957586Y-115675534D01*
X126752437Y-115670062D01*
X126543094Y-115666918D01*
X126338874Y-115666279D01*
X126149094Y-115668326D01*
X125983072Y-115673240D01*
X125850125Y-115681200D01*
X125822700Y-115683732D01*
X125275953Y-115753034D01*
X124708942Y-115850951D01*
X124130413Y-115974915D01*
X123549108Y-116122356D01*
X122973772Y-116290707D01*
X122413149Y-116477400D01*
X121875982Y-116679867D01*
X121371016Y-116895538D01*
X120906994Y-117121847D01*
X120882400Y-117134781D01*
X120317702Y-117449066D01*
X119781371Y-117779935D01*
X119276541Y-118124861D01*
X118806347Y-118481317D01*
X118373922Y-118846775D01*
X117982402Y-119218708D01*
X117634919Y-119594588D01*
X117334609Y-119971889D01*
X117293700Y-120028626D01*
X117237955Y-120109960D01*
X117196047Y-120176709D01*
X117175124Y-120217307D01*
X117174000Y-120222366D01*
X117156608Y-120259433D01*
X117142177Y-120274191D01*
X117114823Y-120310525D01*
X117072671Y-120382295D01*
X117021542Y-120478509D01*
X116967254Y-120588173D01*
X116915626Y-120700295D01*
X116910842Y-120711200D01*
X116852749Y-120864984D01*
X116801061Y-121039273D01*
X116768954Y-121181100D01*
X116757366Y-121278157D01*
X116752345Y-121398106D01*
X116753449Y-121525967D01*
X116760237Y-121646759D01*
X116772264Y-121745500D01*
X116787322Y-121803400D01*
X116814600Y-121879397D01*
X116828650Y-121932067D01*
X116855930Y-122000098D01*
X116893908Y-122056603D01*
X116930285Y-122104584D01*
X116945399Y-122136512D01*
X116964132Y-122170983D01*
X117013915Y-122226954D01*
X117085126Y-122295488D01*
X117168144Y-122367647D01*
X117253347Y-122434495D01*
X117305414Y-122470911D01*
X117557391Y-122608715D01*
X117836407Y-122711826D01*
X118128281Y-122775236D01*
X118189667Y-122783016D01*
X118269710Y-122793326D01*
X118327682Y-122803477D01*
X118346012Y-122808933D01*
X118374788Y-122811792D01*
X118444990Y-122814217D01*
X118547248Y-122816137D01*
X118672188Y-122817481D01*
X118810441Y-122818179D01*
X118952633Y-122818159D01*
X119089392Y-122817350D01*
X119211348Y-122815682D01*
X119218700Y-122815539D01*
X119262445Y-122811558D01*
X119344913Y-122801430D01*
X119454606Y-122786649D01*
X119580025Y-122768713D01*
X119590225Y-122767211D01*
X119836905Y-122726774D01*
X120086927Y-122678389D01*
X120329992Y-122624525D01*
X120555804Y-122567651D01*
X120754062Y-122510237D01*
X120914469Y-122454750D01*
X120945383Y-122442330D01*
X121011948Y-122417844D01*
X121058358Y-122406557D01*
X121066645Y-122406855D01*
X121099725Y-122400235D01*
X121159221Y-122375854D01*
X121186800Y-122362405D01*
X121256750Y-122330858D01*
X121312202Y-122312944D01*
X121324405Y-122311401D01*
X121357712Y-122300984D01*
X121428816Y-122272160D01*
X121529747Y-122228572D01*
X121652537Y-122173860D01*
X121789216Y-122111666D01*
X121931816Y-122045630D01*
X122072367Y-121979395D01*
X122202900Y-121916600D01*
X122315445Y-121860888D01*
X122358275Y-121839008D01*
X122545107Y-121741184D01*
X122688032Y-121663843D01*
X122789116Y-121605847D01*
X122836958Y-121575559D01*
X122885658Y-121542817D01*
X122964044Y-121490508D01*
X123059430Y-121427086D01*
X123120088Y-121386857D01*
X123415788Y-121177492D01*
X123692635Y-120954940D01*
X123945346Y-120724539D01*
X124168636Y-120491621D01*
X124357218Y-120261524D01*
X124505810Y-120039581D01*
X124566990Y-119926169D01*
X124645930Y-119743620D01*
X124691708Y-119581271D01*
X124707958Y-119424297D01*
X124706815Y-119355637D01*
X124675348Y-119176647D01*
X124599322Y-119020956D01*
X124478588Y-118888464D01*
X124312998Y-118779073D01*
X124102403Y-118692682D01*
X123846656Y-118629194D01*
X123562100Y-118590037D01*
X123404866Y-118573654D01*
X123296801Y-118558925D01*
X123236307Y-118545609D01*
X123222702Y-118538769D01*
X123223408Y-118509610D01*
X123265342Y-118469356D01*
X123341151Y-118421772D01*
X123443484Y-118370626D01*
X123564990Y-118319682D01*
X123698318Y-118272707D01*
X123801027Y-118242512D01*
X123940548Y-118206489D01*
X124057643Y-118180326D01*
X124166772Y-118162090D01*
X124282396Y-118149848D01*
X124418976Y-118141668D01*
X124590971Y-118135617D01*
X124603500Y-118135257D01*
X124797972Y-118132374D01*
X124958455Y-118137173D01*
X125101404Y-118151321D01*
X125243273Y-118176482D01*
X125400516Y-118214323D01*
X125410546Y-118216966D01*
X125549068Y-118270227D01*
X125695735Y-118354432D01*
X125837391Y-118459433D01*
X125960886Y-118575081D01*
X126053066Y-118691227D01*
X126075437Y-118730000D01*
X126126755Y-118875725D01*
X126151485Y-119052125D01*
X126149598Y-119246573D01*
X126121064Y-119446440D01*
X126077495Y-119606300D01*
X125972195Y-119857666D01*
X125823230Y-120123721D01*
X125634000Y-120400037D01*
X125407906Y-120682189D01*
X125148349Y-120965750D01*
X124858730Y-121246292D01*
X124728127Y-121362865D01*
X124610699Y-121461503D01*
X124468619Y-121575019D01*
X124310228Y-121697288D01*
X124143864Y-121822186D01*
X123977866Y-121943587D01*
X123820572Y-122055366D01*
X123680323Y-122151399D01*
X123565456Y-122225560D01*
X123506490Y-122260159D01*
X123424877Y-122307071D01*
X123331715Y-122363739D01*
X123295400Y-122386746D01*
X123073085Y-122522095D01*
X122811668Y-122667962D01*
X122520574Y-122819836D01*
X122209227Y-122973207D01*
X121887051Y-123123562D01*
X121563470Y-123266391D01*
X121247909Y-123397183D01*
X120949791Y-123511427D01*
X120933200Y-123517463D01*
X120829738Y-123555655D01*
X120733881Y-123592193D01*
X120664664Y-123619804D01*
X120659288Y-123622073D01*
X120592934Y-123646192D01*
X120542708Y-123657485D01*
X120539499Y-123657601D01*
X120492569Y-123667198D01*
X120426716Y-123690603D01*
X120419711Y-123693570D01*
X120339809Y-123723471D01*
X120224050Y-123761058D01*
X120086047Y-123802465D01*
X119939411Y-123843825D01*
X119797754Y-123881271D01*
X119674688Y-123910935D01*
X119601837Y-123925919D01*
X119540827Y-123940011D01*
X119505030Y-123953266D01*
X119465633Y-123966708D01*
X119402380Y-123979518D01*
X119401293Y-123979685D01*
X119337805Y-123991330D01*
X119243326Y-124010923D01*
X119136278Y-124034615D01*
X119115711Y-124039338D01*
X118999816Y-124064574D01*
X118884601Y-124087114D01*
X118793123Y-124102473D01*
X118785511Y-124103531D01*
X118700801Y-124115567D01*
X118630437Y-124126650D01*
X118609100Y-124130502D01*
X118550312Y-124139694D01*
X118452724Y-124152354D01*
X118328108Y-124167187D01*
X118188241Y-124182899D01*
X118044896Y-124198198D01*
X117909849Y-124211789D01*
X117794874Y-124222380D01*
X117720100Y-124228161D01*
X117610377Y-124233225D01*
X117473497Y-124236629D01*
X117323017Y-124238351D01*
X117172497Y-124238371D01*
X117035494Y-124236666D01*
X116925568Y-124233217D01*
X116869200Y-124229487D01*
X116795990Y-124222571D01*
X116696215Y-124213462D01*
X116610887Y-124205851D01*
X116476572Y-124189865D01*
X116316318Y-124164599D01*
X116153220Y-124134053D01*
X116010374Y-124102225D01*
X116005600Y-124101030D01*
X115935419Y-124083897D01*
X115854587Y-124064822D01*
X115853200Y-124064501D01*
X115749919Y-124036376D01*
X115640136Y-123999821D01*
X115541182Y-123961191D01*
X115470387Y-123926840D01*
X115460198Y-123920410D01*
X115401512Y-123892899D01*
X115364948Y-123886200D01*
X115326847Y-123874385D01*
X115319800Y-123860800D01*
X115299359Y-123837966D01*
X115283514Y-123835400D01*
X115235823Y-123818678D01*
X115212422Y-123800594D01*
X115166716Y-123764534D01*
X115109372Y-123730852D01*
X115055617Y-123706866D01*
X115020680Y-123699895D01*
X115014999Y-123705717D01*
X115035282Y-123742482D01*
X115090160Y-123798444D01*
X115170680Y-123866645D01*
X115267887Y-123940126D01*
X115372827Y-124011931D01*
X115476548Y-124075099D01*
X115521846Y-124099579D01*
X115830869Y-124233051D01*
X116178583Y-124336548D01*
X116562740Y-124410174D01*
X116981093Y-124454032D01*
X117431396Y-124468227D01*
X117911400Y-124452861D01*
G04 #@! TD*
M02*
