M48
;DRILL file {KiCad (5.0.2)-1} date 05/10/19 14:36:26
;FORMAT={-:-/ absolute / inch / decimal}
FMAT,2
INCH,TZ
T1C0.0157
T2C0.1260
%
G90
G05
T1
X4.2913Y-4.6457
X4.2913Y-4.8031
X4.3701Y-4.6457
X4.3701Y-4.8031
X4.4488Y-4.6457
X4.4488Y-4.8031
X4.4882Y-4.3701
X4.4882Y-5.0787
X4.5276Y-4.6457
X4.5276Y-4.8031
X4.5669Y-4.3701
X4.5669Y-5.0787
X4.6063Y-4.6457
X4.6063Y-4.8031
X4.6457Y-4.3701
X4.6457Y-5.0787
X4.685Y-4.6457
X4.685Y-4.8031
X4.7244Y-4.3701
X4.7244Y-5.0787
X4.7638Y-4.6457
X4.7638Y-4.8031
X4.8031Y-4.3701
X4.8031Y-5.0787
X4.8425Y-4.6457
X4.8425Y-4.8031
X4.8819Y-4.3701
X4.8819Y-5.0787
X4.9213Y-4.6457
X4.9213Y-4.8031
X4.9606Y-4.3701
X4.9606Y-5.0787
X5.Y-4.6457
X5.Y-4.8031
X5.0394Y-4.3701
X5.0394Y-5.0787
X5.0787Y-4.6457
X5.0787Y-4.8031
X5.1181Y-4.3701
X5.1181Y-5.0787
X5.1575Y-4.6457
X5.1575Y-4.8031
X5.1969Y-4.3701
X5.1969Y-5.0787
X5.2362Y-4.6457
X5.2362Y-4.8031
X5.2756Y-4.3701
X5.2756Y-5.0787
X5.315Y-4.6457
X5.315Y-4.8031
X5.3543Y-4.3701
X5.3543Y-5.0787
X5.3937Y-4.6457
X5.3937Y-4.8031
X5.4331Y-4.3701
X5.4331Y-5.0787
X5.4724Y-4.6457
X5.4724Y-4.8031
X5.5118Y-4.3701
X5.5118Y-5.0787
X5.5512Y-4.6457
X5.5512Y-4.8031
X5.5906Y-4.3701
X5.5906Y-5.0787
X5.6299Y-4.6457
X5.6299Y-4.8031
X5.6693Y-4.3701
X5.6693Y-5.0787
X5.7087Y-4.6457
X5.7087Y-4.8031
X5.748Y-4.3701
X5.748Y-5.0787
X5.7874Y-4.6457
X5.7874Y-4.8031
X5.8268Y-4.3701
X5.8268Y-5.0787
X5.8661Y-4.6457
X5.8661Y-4.8031
X5.9055Y-4.3701
X5.9055Y-5.0787
X5.9449Y-4.6457
X5.9449Y-4.8031
X5.9843Y-4.3701
X5.9843Y-5.0787
X6.0236Y-4.6457
X6.0236Y-4.8031
X6.1024Y-4.6457
X6.1024Y-4.8031
X6.1811Y-4.6457
X6.1811Y-4.8031
X6.2598Y-4.6457
X6.2598Y-4.8031
T2
X4.3701Y-4.9606
X4.3701Y-4.4882
X6.1417Y-4.9606
X6.1417Y-4.4882
T0
M30
